<svg width="18" height="17" viewBox="0 0 18 17" xmlns="http://www.w3.org/2000/svg" xmlns:xlink="http://www.w3.org/1999/xlink">
    <defs>
        <filter id="0ucf64ba5a">
            <feColorMatrix in="SourceGraphic" values="0 0 0 0 0.945000 0 0 0 0 0.251000 0 0 0 0 0.251000 0 0 0 1.000000 0"/>
        </filter>
        <path id="i1j9gks3db" d="M0 0h16.314v16.07H0z"/>
    </defs>
    <g transform="translate(-50 -735)" filter="url(#0ucf64ba5a)" fill="none" fill-rule="evenodd">
        <g transform="translate(50.864 735.801)">
            <mask id="eaiyh19agc" fill="#fff">
                <use xlink:href="#i1j9gks3db"/>
            </mask>
            <path d="M8.157 0C5.942 0 5.664.01 4.793.048c-.867.04-1.46.175-1.979.374-.536.205-.992.48-1.444.927a3.937 3.937 0 0 0-.942 1.423c-.201.511-.34 1.095-.379 1.95C.01 5.58 0 5.853 0 8.035c0 2.182.01 2.456.05 3.313.04.855.178 1.44.38 1.95.208.529.487.977.94 1.424a4 4 0 0 0 1.445.927c.52.198 1.112.334 1.98.373.87.039 1.148.048 3.363.048 2.216 0 2.493-.01 3.363-.048.868-.039 1.46-.175 1.98-.373.536-.206.99-.48 1.444-.927.454-.447.733-.895.942-1.424.2-.51.34-1.095.378-1.95.04-.857.05-1.13.05-3.313 0-2.182-.01-2.456-.05-3.313-.039-.855-.177-1.439-.378-1.95a3.937 3.937 0 0 0-.942-1.423A4.004 4.004 0 0 0 13.5.422c-.52-.2-1.112-.335-1.98-.374C10.65.01 10.373 0 8.157 0m0 1.448c2.178 0 2.436.008 3.296.047.795.036 1.227.166 1.514.277.38.145.653.32.938.6.285.281.462.549.61.925.112.283.245.708.282 1.491.039.848.047 1.102.047 3.247 0 2.145-.008 2.4-.047 3.247-.037.783-.17 1.209-.281 1.492a2.488 2.488 0 0 1-.61.924 2.526 2.526 0 0 1-.939.6c-.287.111-.719.242-1.514.278-.86.038-1.118.046-3.296.046s-2.436-.008-3.296-.046c-.795-.036-1.227-.167-1.515-.277a2.526 2.526 0 0 1-.938-.601 2.488 2.488 0 0 1-.61-.924c-.111-.283-.244-.709-.28-1.492-.04-.848-.048-1.102-.048-3.247 0-2.145.008-2.4.047-3.247.037-.783.17-1.208.281-1.491.148-.376.325-.644.61-.924.286-.281.558-.456.938-.601.288-.11.72-.241 1.515-.277.86-.039 1.118-.047 3.296-.047" fill="#FFF" mask="url(#eaiyh19agc)"/>
        </g>
        <path d="M59.02 746.515c-1.5 0-2.718-1.2-2.718-2.678 0-1.48 1.217-2.68 2.719-2.68 1.501 0 2.718 1.2 2.718 2.68 0 1.478-1.217 2.678-2.718 2.678m0-6.804c-2.313 0-4.189 1.847-4.189 4.126 0 2.279 1.876 4.126 4.189 4.126 2.312 0 4.188-1.847 4.188-4.126 0-2.28-1.876-4.126-4.188-4.126M64.353 739.547a.972.972 0 0 1-.978.964.972.972 0 0 1-.98-.964c0-.532.44-.964.98-.964s.978.432.978.964" fill="#FFF"/>
    </g>
</svg>
