<svg width="17" height="14" viewBox="0 0 17 14" xmlns="http://www.w3.org/2000/svg" xmlns:xlink="http://www.w3.org/1999/xlink">
    <defs>
        <path id="vlx9o3sbsb" d="M0 .602h3.475v13.635H0z"/>
        <path id="lfvyk25iqd" d="M.803.157h9.34v9.335H.804z"/>
        <filter id="wkdc5gmita">
            <feColorMatrix in="SourceGraphic" values="0 0 0 0 0.945000 0 0 0 0 0.251000 0 0 0 0 0.251000 0 0 0 1.000000 0"/>
        </filter>
    </defs>
    <g transform="translate(-50 -765)" filter="url(#wkdc5gmita)" fill="none" fill-rule="evenodd">
        <g transform="translate(50.864 764.553)">
            <mask id="6c5241sctc" fill="#fff">
                <use xlink:href="#vlx9o3sbsb"/>
            </mask>
            <path d="M1.738.602c.96 0 1.737.735 1.737 1.64 0 .907-.777 1.642-1.737 1.642C.776 3.884 0 3.15 0 2.242 0 1.337.776.602 1.738.602zm-1.5 13.636h2.999V5.13h-3v9.108z" fill="#FFF" mask="url(#6c5241sctc)"/>
        </g>
        <g transform="translate(56.227 769.299)">
            <mask id="et99ndwdpe" fill="#fff">
                <use xlink:href="#lfvyk25iqd"/>
            </mask>
            <path d="M.803.384h2.873v1.244h.04C4.116.912 5.094.157 6.552.157c3.032 0 3.592 1.886 3.592 4.34v4.995H7.15V5.063c0-1.056-.022-2.415-1.558-2.415-1.56 0-1.796 1.15-1.796 2.339v4.505H.803V.384z" fill="#FFF" mask="url(#et99ndwdpe)"/>
        </g>
    </g>
</svg>
