<svg width="26" height="33" viewBox="0 0 26 33" xmlns="http://www.w3.org/2000/svg" xmlns:xlink="http://www.w3.org/1999/xlink">
    <defs>
        <path id="9elemvgwca" d="M0 0h26v33H0z"/>
    </defs>
    <g fill="none" fill-rule="evenodd">
        <g>
            <mask id="0ohq7xagqb" fill="#fff">
                <use xlink:href="#9elemvgwca"/>
            </mask>
            <path d="M13 2.295c-5.886 0-10.675 4.724-10.675 10.533 0 4.53 7.054 13.296 10.675 17.317 3.62-4.02 10.675-12.787 10.675-17.317C23.675 7.02 18.887 2.295 13 2.295M13 33a1.17 1.17 0 0 1-.852-.368C11.652 32.106 0 19.653 0 12.828 0 5.754 5.832 0 13 0c7.169 0 13 5.754 13 12.828 0 6.825-11.651 19.278-12.149 19.805a1.17 1.17 0 0 1-.85.368" fill="#000" mask="url(#0ohq7xagqb)"/>
        </g>
        <path d="M13 8.383A3.621 3.621 0 0 0 9.384 12 3.621 3.621 0 0 0 13 15.616 3.621 3.621 0 0 0 16.617 12 3.621 3.621 0 0 0 13 8.383M13 18c-3.308 0-6-2.692-6-6 0-3.309 2.692-6 6-6 3.309 0 6 2.691 6 6 0 3.308-2.691 6-6 6" fill="#000"/>
    </g>
</svg>
